<svg id="Layer_2" data-name="Layer 2" xmlns="http://www.w3.org/2000/svg" viewBox="0 0 217.61 130.13"><defs><style>.cls-1{fill:#fc326c;}.cls-2{font-size:47.35px;fill:#fff;font-family:Modak;}</style></defs><title>best_par</title><path class="cls-1" d="M202.43,57.08H186.66a5,5,0,0,1-4.95-5V15.18A15.18,15.18,0,0,0,166.53,0H43.5A15.18,15.18,0,0,0,28.32,15.18V52.12a5,5,0,0,1-4.95,5H15.18A15.19,15.19,0,0,0,0,72.26v38.86A15.18,15.18,0,0,0,15.18,126.3H202.43a15.18,15.18,0,0,0,15.18-15.18V72.26A15.17,15.17,0,0,0,202.43,57.08Z"/><text class="cls-2" transform="translate(53.06 49.06)">BEST<tspan x="-43.56" y="56.82">PARENTS</tspan></text></svg>