<svg id="Layer_1" data-name="Layer 1" xmlns="http://www.w3.org/2000/svg" viewBox="0 0 686.3 130.44"><defs><style>.cls-1{writing-mode:tb;text-orientation:upright;glyph-orientation-vertical:0deg;}.cls-2{fill:#fff;}</style></defs><title>happy</title><text class="cls-1" x="-130.26" y="-141.04"/><path class="cls-2" d="M270.9,270.1H209.46V216.8H191.7v53.3H130.26V143.22H191.7v45.37h17.76V143.22H270.9Z" transform="translate(-130.26 -141.04)"/><path class="cls-2" d="M433.92,270.08H371l-3.1-22.87H345.51l-3.38,22.87h-62.5L310.69,143.2H399.1Zm-67.24-45.55q-3.07-14-6.15-31.26t-3.07-21.85q-2.4,8.85-6.83,29.32-3.08,13.27-5.12,23.79Z" transform="translate(-130.26 -141.04)"/><path class="cls-2" d="M424.12,187.9q0,15.32,8.88,21.4,11.6,8.12,45.05,8.11h16.39v50.9h61.1V141.43H494.1q-22.19,0-33.8,1.2a65.09,65.09,0,0,0-20.48,5.26Q431,151.94,427.53,157t-3.41,19.82Zm51.2-4.05V173.71q0-6.65,3.59-8.58t15.53-1.94v32.28H490q-8.87,0-11.77-2.49T475.32,183.85Z" transform="translate(-130.26 -141.04)"/><path class="cls-2" d="M698.56,187.52q0,15.3-8.87,21.39Q678.08,217,644.63,217H628.24v50.9h-61.1V141h61.45q22.18,0,33.79,1.2a65.36,65.36,0,0,1,20.48,5.26q8.88,4,12.29,9.13t3.41,19.82Zm-51.2-4.06V173.32q0-6.65-3.58-8.58t-15.54-1.94v32.28h4.44q8.88,0,11.78-2.49T647.36,183.46Z" transform="translate(-130.26 -141.04)"/><path class="cls-2" d="M672.51,271.48l44.38-81V144.61h57v45.92l42.67,81H760.24q-8.19-24.15-8.88-26.92-3.75-13.27-5.8-23.05-4.44,16.77-9.56,31.16-3.4,9.41-7.17,18.81Z" transform="translate(-130.26 -141.04)"/></svg>