<svg id="Layer_1" data-name="Layer 1" xmlns="http://www.w3.org/2000/svg" xmlns:xlink="http://www.w3.org/1999/xlink" viewBox="0 0 1275.87 413.89"><defs><style>.cls-1,.cls-4{fill:none;}.cls-2{clip-path:url(#clip-path);}.cls-3{fill:#fffef5;}.cls-4{stroke:#007c70;stroke-miterlimit:10;}</style><clipPath id="clip-path"><path class="cls-1" d="M91.56,13.66h995.06a174.65,174.65,0,0,1,174.65,174.65V226a174.65,174.65,0,0,1-174.65,174.65H111.49a99.86,99.86,0,0,1-99.86-99.86V93.59A79.93,79.93,0,0,1,91.56,13.66Z"/></clipPath></defs><title>happy-01</title><g class="cls-2"><path class="cls-3" d="M92.18,13.21h995.06a174.65,174.65,0,0,1,174.65,174.65v37.67a174.65,174.65,0,0,1-174.65,174.65H112.11a99.86,99.86,0,0,1-99.86-99.86V93.13A79.93,79.93,0,0,1,92.18,13.21Z"/><path class="cls-1" d="M97.86,9.42h995.06a174.65,174.65,0,0,1,174.65,174.65v37.67A174.65,174.65,0,0,1,1092.92,396.4H117.79a99.86,99.86,0,0,1-99.86-99.86V89.35A79.93,79.93,0,0,1,97.86,9.42Z"/><line class="cls-4" x1="-19.32" y1="54.94" x2="1315.24" y2="54.94"/><line class="cls-4" x1="-25.9" y1="105.36" x2="1279.08" y2="105.36"/><line class="cls-4" x1="-11.21" y1="155.66" x2="1323.35" y2="155.66"/><line class="cls-4" x1="-17.78" y1="206.08" x2="1287.19" y2="206.08"/><line class="cls-4" x1="-15.47" y1="259.35" x2="1319.09" y2="259.35"/><line class="cls-4" x1="-22.04" y1="309.76" x2="1282.93" y2="309.77"/><line class="cls-4" x1="-18.31" y1="357.35" x2="1316.25" y2="357.36"/><line class="cls-4" x1="10.43" y1="835.63" x2="10.43" y2="-498.93"/><line class="cls-4" x1="60.84" y1="842.2" x2="60.85" y2="-462.77"/><line class="cls-4" x1="114.11" y1="837.05" x2="114.12" y2="-497.51"/><line class="cls-4" x1="164.53" y1="843.62" x2="164.53" y2="-461.35"/><line class="cls-4" x1="214.96" y1="838.47" x2="214.96" y2="-496.09"/><line class="cls-4" x1="265.38" y1="845.04" x2="265.38" y2="-459.93"/><line class="cls-4" x1="318.64" y1="839.89" x2="318.65" y2="-494.67"/><line class="cls-4" x1="369.06" y1="846.47" x2="369.07" y2="-458.51"/><line class="cls-4" x1="425.17" y1="856.94" x2="425.18" y2="-477.62"/><line class="cls-4" x1="475.59" y1="863.51" x2="475.59" y2="-441.47"/><line class="cls-4" x1="524.6" y1="866.88" x2="524.6" y2="-467.68"/><line class="cls-4" x1="575.01" y1="873.45" x2="575.02" y2="-431.52"/><line class="cls-4" x1="625.44" y1="878.24" x2="625.45" y2="-456.32"/><line class="cls-4" x1="675.86" y1="884.82" x2="675.86" y2="-420.16"/><line class="cls-4" x1="726.29" y1="893.87" x2="726.29" y2="-440.69"/><line class="cls-4" x1="776.7" y1="900.44" x2="776.71" y2="-404.54"/><line class="cls-4" x1="828.55" y1="899.55" x2="828.56" y2="-435.01"/><line class="cls-4" x1="878.97" y1="906.12" x2="878.97" y2="-398.85"/><line class="cls-4" x1="927.98" y1="902.39" x2="927.98" y2="-432.17"/><line class="cls-4" x1="978.4" y1="908.96" x2="978.4" y2="-396.01"/><line class="cls-4" x1="1030.24" y1="909.49" x2="1030.25" y2="-425.07"/><line class="cls-4" x1="1080.66" y1="916.07" x2="1080.67" y2="-388.91"/><line class="cls-4" x1="1131.09" y1="929.38" x2="1131.09" y2="-405.18"/><line class="cls-4" x1="1181.51" y1="935.95" x2="1181.51" y2="-369.03"/><line class="cls-4" x1="1230.51" y1="952.1" x2="1230.52" y2="-382.46"/></g></svg>