<svg id="Layer_1" data-name="Layer 1" xmlns="http://www.w3.org/2000/svg" xmlns:xlink="http://www.w3.org/1999/xlink" viewBox="0 0 1326.97 1427.07"><defs><style>.cls-1,.cls-4{fill:none;}.cls-2{clip-path:url(#clip-path);}.cls-3{fill:#fffef5;}.cls-4{stroke:#007c70;stroke-miterlimit:10;}</style><clipPath id="clip-path" transform="translate(6.45 -69.22)"><path class="cls-1" d="M117.54,573.34h951.63a190.29,190.29,0,0,1,190.29,190.29v0a190.29,190.29,0,0,1-190.29,190.29H139.26a108.8,108.8,0,0,1-108.8-108.8V660.42a87.08,87.08,0,0,1,87.08-87.08Z"/></clipPath></defs><title>landing_chequepat-1</title><g class="cls-2"><path class="cls-3" d="M124.6,503.68h951.63A190.29,190.29,0,0,1,1266.52,694v0a190.29,190.29,0,0,1-190.29,190.29H146.32a108.8,108.8,0,0,1-108.8-108.8V590.76a87.08,87.08,0,0,1,87.08-87.08Z"/><path class="cls-1" d="M130.19,500h951.63a190.29,190.29,0,0,1,190.29,190.29v0a190.29,190.29,0,0,1-190.29,190.29H151.91a108.8,108.8,0,0,1-108.8-108.8V587A87.08,87.08,0,0,1,130.19,500Z"/><line class="cls-4" x1="6.47" y1="544.72" x2="1318.99" y2="544.72"/><line class="cls-4" y1="594.31" x2="1283.43" y2="594.31"/><line class="cls-4" x1="14.44" y1="643.78" x2="1326.97" y2="643.78"/><line class="cls-4" x1="7.98" y1="693.37" x2="1291.41" y2="693.37"/><line class="cls-4" x1="10.25" y1="745.76" x2="1322.78" y2="745.76"/><line class="cls-4" x1="3.79" y1="795.34" x2="1287.22" y2="795.34"/><line class="cls-4" x1="7.46" y1="842.14" x2="1319.98" y2="842.14"/><line class="cls-4" x1="35.73" y1="1312.52" x2="35.73"/><line class="cls-4" x1="85.31" y1="1318.99" x2="85.31" y2="35.56"/><line class="cls-4" x1="137.7" y1="1313.92" x2="137.7" y2="1.4"/><line class="cls-4" x1="187.28" y1="1320.39" x2="187.28" y2="36.96"/><line class="cls-4" x1="236.88" y1="1315.32" x2="236.88" y2="2.79"/><line class="cls-4" x1="286.46" y1="1321.78" x2="286.46" y2="38.35"/><line class="cls-4" x1="338.85" y1="1316.71" x2="338.85" y2="4.19"/><line class="cls-4" x1="388.44" y1="1323.18" x2="388.44" y2="39.75"/><line class="cls-4" x1="443.62" y1="1333.48" x2="443.62" y2="20.95"/><line class="cls-4" x1="493.21" y1="1339.94" x2="493.21" y2="56.51"/><line class="cls-4" x1="541.41" y1="1343.25" x2="541.41" y2="30.73"/><line class="cls-4" x1="590.99" y1="1349.72" x2="590.99" y2="66.29"/><line class="cls-4" x1="640.59" y1="1354.43" x2="640.59" y2="41.91"/><line class="cls-4" x1="690.17" y1="1360.9" x2="690.17" y2="77.47"/><line class="cls-4" x1="739.77" y1="1369.8" x2="739.77" y2="57.27"/><line class="cls-4" x1="789.35" y1="1376.26" x2="789.35" y2="92.83"/><line class="cls-4" x1="840.34" y1="1375.38" x2="840.34" y2="62.86"/><line class="cls-4" x1="889.93" y1="1381.85" x2="889.93" y2="98.42"/><line class="cls-4" x1="938.13" y1="1378.18" x2="938.13" y2="65.65"/><line class="cls-4" x1="987.71" y1="1384.64" x2="987.71" y2="101.22"/><line class="cls-4" x1="1038.7" y1="1385.16" x2="1038.7" y2="72.64"/><line class="cls-4" x1="1088.29" y1="1391.63" x2="1088.29" y2="108.2"/><line class="cls-4" x1="1137.88" y1="1404.72" x2="1137.88" y2="92.2"/><line class="cls-4" x1="1187.47" y1="1411.18" x2="1187.47" y2="127.76"/><line class="cls-4" x1="1235.67" y1="1427.07" x2="1235.67" y2="114.55"/></g></svg>