<svg id="Layer_1" data-name="Layer 1" xmlns="http://www.w3.org/2000/svg" xmlns:xlink="http://www.w3.org/1999/xlink" viewBox="0 0 1440 1107.91"><defs><style>.cls-1,.cls-4{fill:none;}.cls-2{clip-path:url(#clip-path);}.cls-3{fill:#fffef5;}.cls-4{stroke:#007c70;stroke-miterlimit:10;}</style><clipPath id="clip-path"><path class="cls-1" d="M-320.8,480.75H1093.86a282.88,282.88,0,0,1,282.88,282.88v0a282.88,282.88,0,0,1-282.88,282.88H-288.52A161.74,161.74,0,0,1-450.26,884.78V610.2A129.45,129.45,0,0,1-320.8,480.75Z"/></clipPath></defs><title>landing_chequepat-01</title><g class="cls-2"><path class="cls-3" d="M-319.89,480.09H1094.77A282.88,282.88,0,0,1,1377.66,763v0a282.88,282.88,0,0,1-282.88,282.88H-287.61A161.74,161.74,0,0,1-449.34,884.12V609.54A129.45,129.45,0,0,1-319.89,480.09Z"/><path class="cls-1" d="M-311.58,474.56H1103.08A282.88,282.88,0,0,1,1386,757.44v0a282.88,282.88,0,0,1-282.88,282.88H-279.3A161.74,161.74,0,0,1-441,878.59V604A129.45,129.45,0,0,1-311.58,474.56Z"/><line class="cls-4" x1="-495.51" y1="541.1" x2="1455.65" y2="541.1"/><line class="cls-4" x1="-505.12" y1="614.81" x2="1402.79" y2="614.81"/><line class="cls-4" x1="-483.65" y1="688.36" x2="1467.51" y2="688.36"/><line class="cls-4" x1="-493.26" y1="762.07" x2="1414.65" y2="762.07"/><line class="cls-4" x1="-489.88" y1="839.95" x2="1461.28" y2="839.95"/><line class="cls-4" x1="-499.49" y1="913.66" x2="1408.42" y2="913.66"/><line class="cls-4" x1="-494.03" y1="983.24" x2="1457.13" y2="983.24"/><line class="cls-4" x1="72.32" y1="1698.34" x2="72.32" y2="-209.57"/><line class="cls-4" x1="154.35" y1="1713.64" x2="154.35" y2="-237.52"/><line class="cls-4" x1="228.07" y1="1723.25" x2="228.07" y2="-184.66"/><line class="cls-4" x1="299.72" y1="1728.18" x2="299.72" y2="-222.98"/><line class="cls-4" x1="373.43" y1="1737.79" x2="373.43" y2="-170.12"/><line class="cls-4" x1="447.15" y1="1744.79" x2="447.15" y2="-206.37"/><line class="cls-4" x1="520.87" y1="1754.4" x2="520.87" y2="-153.51"/><line class="cls-4" x1="594.59" y1="1767.63" x2="594.59" y2="-183.53"/><line class="cls-4" x1="668.3" y1="1777.25" x2="668.3" y2="-130.66"/><line class="cls-4" x1="744.11" y1="1775.94" x2="744.11" y2="-175.22"/><line class="cls-4" x1="817.82" y1="1785.55" x2="817.82" y2="-122.36"/><line class="cls-4" x1="889.47" y1="1780.09" x2="889.47" y2="-171.07"/><line class="cls-4" x1="963.18" y1="1789.71" x2="963.18" y2="-118.2"/><line class="cls-4" x1="1038.99" y1="1790.48" x2="1038.99" y2="-160.69"/><line class="cls-4" x1="1112.7" y1="1800.09" x2="1112.7" y2="-107.82"/><line class="cls-4" x1="1186.43" y1="1819.55" x2="1186.43" y2="-131.61"/><line class="cls-4" x1="1260.14" y1="1829.16" x2="1260.14" y2="-78.75"/><line class="cls-4" x1="1331.79" y1="1852.78" x2="1331.79" y2="-98.39"/></g></svg>